<svg xmlns="http://www.w3.org/2000/svg" width="1142.667" height="1105.333" version="1.0" viewBox="0 0 857 829"><path d="M397.8 23.4c-9.2 2.5-17.4 10.7-19.8 19.7-.7 2.4-.9 121.7-.8 346.8l.3 343.1h-41c-22.5 0-43.9-.3-47.5-.6l-6.5-.6V116.5l-2.2-4c-4.6-8.6-15.5-15.5-24.5-15.5-10.7 0-21.5 7-26.2 17l-2.1 4.5v610.3l-2.5-.4c-1.4-.2-9-1.3-17-2.5-38-5.5-65.3-16.2-72.3-28.3-.9-1.6-1.3-36.5-1.7-140.6l-.5-138.5-2.3-5c-8.6-18.8-32.8-22.8-46.4-7.7-7.3 8.1-6.9-2.4-6.6 155.3.3 132.6.4 141.8 2.1 147.4 9.9 33 36.3 53.6 84.2 65.8 22.6 5.7 44.3 8.9 84.5 12.4 17.2 1.5 41.5 1.7 203 2 135 .3 185.6.1 191.5-.7 9.2-1.3 24.7-6.1 32-9.8 24.1-12.1 43.8-35.3 51.8-60.7 5-16 4.8-9.5 4.5-218l-.3-196-2.2-4c-7.2-13.4-24-18.8-37.5-12.2-5.8 2.9-8.8 6.1-12.9 13.7l-2.4 4.5-.5 196c-.5 179.8-.6 196.3-2.2 200.1-4 10-13.3 20.8-22.3 25.8-8.8 4.8-14.4 5.6-43.7 5.6h-26.7l.7-3.3c.4-1.7.7-148.1.7-325.2 0-313.4-.1-322.1-1.9-326.9-4.1-10.6-12.5-16.6-24.3-17.4-6.4-.4-7.8-.1-13.7 2.6-7 3.3-11.2 7.9-14.1 15.5-1.4 3.8-1.5 35.4-1.3 329.5l.3 325.2h-95V42.5l-2.3-4.2c-6.5-12.2-20-18.4-32.4-14.9z"/></svg>